<!-- Generated by IcoMoon.io -->
<svg version="1.1" xmlns="http://www.w3.org/2000/svg" width="768" height="768" viewBox="0 0 768 768">
<title></title>
<g id="icomoon-ignore">
</g>
<path fill="#000" d="M384 640.5q93 0 158.25-66t65.25-159-65.25-158.25-158.25-65.25-158.25 65.25-65.25 158.25 65.25 159 158.25 66zM609 237q25.5 33 44.25 84.75t18.75 93.75q0 118.5-84 203.25t-204 84.75-204-84.75-84-203.25 84-203.25 204-84.75q40.5 0 93.75 19.5t86.25 45l45-46.5q24 19.5 45 45zM352.5 448.5v-192h63v192h-63zM480 31.5v64.5h-192v-64.5h192z"></path>
</svg>
